<svg width="231" height="80" viewBox="0 0 231 80" fill="none" xmlns="http://www.w3.org/2000/svg">
<mask id="mask0_230_11715" style="mask-type:alpha" maskUnits="userSpaceOnUse" x="0" y="-44" width="231" height="162">
<path d="M212.322 93.7929C211.221 94.6645 209.833 95.2659 208.836 96.2628C155.594 104.509 47.7484 120.284 42.2987 117.416C35.4867 113.831 10.7481 64.7121 3.57749 57.9001C-3.59311 51.088 3.93602 4.8376 3.57749 -5.9183C3.29067 -14.523 18.9943 -34.6007 26.882 -43.564L221.594 -14.2807C219.943 -12.9805 219.042 -11.0243 217.979 -9.19487C216.042 -5.8643 214.448 -2.33832 212.869 1.17263C209.713 8.19464 205.058 15.7521 206.585 23.7999C207.224 27.1655 209.348 29.8114 212.252 31.5083C217.632 34.6518 224.026 36.5055 227.958 41.6467C232.06 47.0116 230.465 53.543 228.695 59.5334C226.29 67.6671 223.063 75.7531 219.433 83.4155C217.636 87.2075 215.677 91.1353 212.322 93.7929Z" fill="#D9D9D9"/>
</mask>
<g mask="url(#mask0_230_11715)">
<path d="M373.014 39.4308L391.771 28.6022C392.006 28.4666 392.15 28.2157 392.15 27.9444C392.15 27.6731 392.006 27.4222 391.771 27.2866L373.014 16.458C372.508 16.1663 372.508 15.4356 373.014 15.1439L391.163 4.66682C391.774 4.31384 392.15 3.66185 392.15 2.9559C392.15 1.86487 391.266 0.980969 390.174 0.980969H341.15C340.89 0.980969 340.648 1.1137 340.508 1.33395L320.469 32.9488L304.933 0.0445557H114.852L99.4774 32.6017L79.7201 0.978052H29.6777C28.5868 0.978052 27.7029 1.86341 27.7029 2.95444C27.7029 3.66039 28.0792 4.31238 28.6903 4.66536L47.9765 15.8002L28.0821 27.2866C27.8473 27.4222 27.7029 27.6731 27.7029 27.9444C27.7029 28.2157 27.8473 28.4666 28.0821 28.6022L47.9765 40.0886L28.0821 51.575C27.8473 51.7106 27.7029 51.9615 27.7029 52.2328C27.7029 52.5041 27.8473 52.755 28.0821 52.8906L47.9765 64.377L28.6903 75.5119C28.0792 75.8649 27.7029 76.5168 27.7029 77.2228C27.7029 78.3138 28.5868 79.1977 29.6777 79.1977H79.1207L99.2572 47.4282L114.852 80.1312H304.933L320.421 47.6499L339.908 78.8404C340.047 79.0621 340.29 79.1977 340.552 79.1977H390.172C391.263 79.1977 392.149 78.3138 392.149 77.2228C392.149 76.5168 391.772 75.8649 391.161 75.5119L373.013 65.0348C372.507 64.7431 372.507 64.0124 373.013 63.7207L391.77 52.8921C392.004 52.7565 392.149 52.5056 392.149 52.2343C392.149 51.963 392.004 51.7121 391.77 51.5765L373.013 40.7479C372.507 40.4562 372.507 39.7254 373.013 39.4337L373.014 39.4308Z" fill="#C01100"/>
<path d="M202.558 80.1312H214.384L253.302 0.0445557H241.476L202.558 80.1312Z" fill="#FF95CF" fill-opacity="0.99"/>
<path d="M167.521 80.1312H179.347L218.265 0.0445557H206.439L167.521 80.1312Z" fill="#FF95CF" fill-opacity="0.99"/>
<path d="M276.513 0.0445557L237.595 80.1312H249.421L288.339 0.0445557H276.513Z" fill="#FF95CF" fill-opacity="0.99"/>
<path d="M106.232 62.055L112.089 74.3377L148.191 0.0445557H136.365L106.232 62.055Z" fill="#FF95CF" fill-opacity="0.99"/>
<path d="M132.484 80.1312H144.31L183.228 0.0445557H171.402L132.484 80.1312Z" fill="#FF95CF" fill-opacity="0.99"/>
<path d="M308.194 6.94951L272.632 80.1312H284.458L314.022 19.2921L308.194 6.94951Z" fill="#FF95CF" fill-opacity="0.99"/>
</g>
</svg>
