<svg width="231" height="80" viewBox="0 0 231 80" fill="none" xmlns="http://www.w3.org/2000/svg">
<mask id="mask0_230_11718" style="mask-type:alpha" maskUnits="userSpaceOnUse" x="0" y="-38" width="231" height="162">
<path d="M18.588 -13.5969C19.6883 -14.4684 21.0768 -15.0699 22.0737 -16.0667C75.3154 -24.3129 183.161 -40.0883 188.611 -37.22C195.423 -33.6347 220.162 15.4839 227.332 22.296C234.503 29.1081 226.974 75.3584 227.332 86.1143C227.619 94.7191 211.915 114.797 204.028 123.76L9.31526 94.4767C10.9666 93.1766 11.8672 91.2204 12.9311 89.3909C14.8681 86.0604 16.4619 82.5344 18.0402 79.0234C21.1969 72.0014 25.8515 64.444 24.3244 56.3962C23.6858 53.0305 21.5617 50.3847 18.6577 48.6878C13.278 45.5443 6.88358 43.6906 2.95206 38.5494C-1.15046 33.1845 0.444495 26.653 2.21506 20.6627C4.61921 12.5289 7.84714 4.44295 11.4771 -3.21939C13.2735 -7.01144 15.2327 -10.9392 18.588 -13.5969Z" fill="#D9D9D9"/>
</mask>
<g mask="url(#mask0_230_11718)">
<path d="M-142.105 40.7653L-160.861 51.5938C-161.096 51.7295 -161.241 51.9804 -161.241 52.2517C-161.241 52.523 -161.096 52.7738 -160.861 52.9095L-142.105 63.738C-141.598 64.0298 -141.598 64.7605 -142.105 65.0522L-160.253 75.5293C-160.864 75.8822 -161.241 76.5342 -161.241 77.2402C-161.241 78.3312 -160.357 79.2151 -159.264 79.2151L-110.24 79.2151C-109.98 79.2151 -109.738 79.0824 -109.598 78.8621L-89.5593 47.2472L-74.023 80.1515L116.058 80.1515L131.432 47.5944L151.19 79.218L201.232 79.218C202.323 79.218 203.207 78.3326 203.207 77.2416C203.207 76.5357 202.83 75.8837 202.219 75.5307L182.933 64.3958L202.828 52.9095C203.062 52.7738 203.207 52.5229 203.207 52.2516C203.207 51.9803 203.062 51.7295 202.828 51.5938L182.933 40.1074L202.828 28.621C203.062 28.4854 203.207 28.2345 203.207 27.9632C203.207 27.6919 203.062 27.441 202.828 27.3054L182.933 15.819L202.219 4.68417C202.83 4.33118 203.207 3.6792 203.207 2.97324C203.207 1.88222 202.323 0.998322 201.232 0.998322L151.789 0.998326L131.652 32.7678L116.058 0.064827L-74.023 0.0648436L-89.5112 32.5461L-108.999 1.3557C-109.137 1.134 -109.381 0.998349 -109.642 0.998349L-159.263 0.998353C-160.354 0.998353 -161.239 1.88225 -161.239 2.97328C-161.239 3.67923 -160.863 4.33122 -160.252 4.6842L-142.103 15.1612C-141.597 15.4529 -141.597 16.1837 -142.103 16.4754L-160.86 27.304C-161.095 27.4396 -161.239 27.6905 -161.239 27.9618C-161.239 28.2331 -161.095 28.484 -160.86 28.6196L-142.103 39.4482C-141.597 39.7399 -141.597 40.4706 -142.103 40.7624L-142.105 40.7653Z" fill="#C01100"/>
<path d="M28.3517 0.0648346L16.5258 0.0648357L-22.3923 80.1515L-10.5665 80.1515L28.3517 0.0648346Z" fill="#FF95CF" fill-opacity="0.99"/>
<path d="M63.3886 0.0648316L51.5628 0.0648326L12.6447 80.1515L24.4705 80.1515L63.3886 0.0648316Z" fill="#FF95CF" fill-opacity="0.99"/>
<path d="M-45.6034 80.1515L-6.68534 0.0648377L-18.5111 0.0648387L-57.4293 80.1515L-45.6034 80.1515Z" fill="#FF95CF" fill-opacity="0.99"/>
<path d="M124.678 18.1411L118.82 5.85834L82.7186 80.1515L94.5444 80.1515L124.678 18.1411Z" fill="#FF95CF" fill-opacity="0.99"/>
<path d="M98.4255 0.0648285L86.5997 0.0648295L47.6816 80.1515L59.5074 80.1515L98.4255 0.0648285Z" fill="#FF95CF" fill-opacity="0.99"/>
<path d="M-77.2843 73.2466L-41.7223 0.0648331L-53.5481 0.0648342L-83.1126 60.904L-77.2843 73.2466Z" fill="#FF95CF" fill-opacity="0.99"/>
</g>
</svg>
