<svg width="200" height="198" viewBox="0 0 200 198" fill="none" xmlns="http://www.w3.org/2000/svg">
<path fill-rule="evenodd" clip-rule="evenodd" d="M199.328 98.8967H199.328C144.6 98.8967 100.212 143.168 100.023 197.851C99.8344 143.168 55.4468 98.8967 0.719233 98.8967V98.8943C55.2481 98.8943 99.5119 54.9443 100.02 0.535408H100.027C100.535 54.9443 144.799 98.8943 199.328 98.8943H199.328V98.8967Z" fill="#213147"/>
<path d="M84.0932 67.8079L84.1453 67.5759L83.9133 67.5237L82.5849 67.2251L82.3528 67.173L82.3007 67.405L80.7419 74.3395C80.2345 76.5969 81.6716 78.8568 83.9478 79.3684C86.2098 79.8769 88.4752 78.4486 88.9825 76.1918L90.5413 69.2573L90.5934 69.0253L90.3614 68.9731L89.033 68.6745L88.8009 68.6224L88.7488 68.8544L87.19 75.7889C86.9045 77.0589 85.6254 77.8667 84.3498 77.58C83.0585 77.2897 82.2491 76.0115 82.5344 74.7424L84.0932 67.8079ZM92.662 69.4903L92.43 69.4381L92.3778 69.6702L89.9694 80.3844L89.9173 80.6165L90.1493 80.6686L91.4628 80.9639L91.6948 81.016L91.747 80.784L92.6247 76.8791L95.169 77.451C97.2184 77.9117 99.0935 76.4929 99.4911 74.7239C99.8887 72.955 98.8012 70.8703 96.7518 70.4096L92.662 69.4903ZM113.088 74.3254L113.14 74.0934L112.908 74.0412L105.012 72.2664L104.78 72.2142L104.728 72.4462L104.43 73.7706L104.378 74.0027L104.61 74.0548L107.647 74.7374L105.588 83.8953L105.536 84.1273L105.768 84.1795L107.097 84.4781L107.329 84.5302L107.381 84.2982L109.439 75.1404L112.506 75.8297L112.738 75.8819L112.79 75.6498L113.088 74.3254ZM93.0234 75.1055L93.8055 71.6262L96.3497 72.1981C97.3245 72.4172 97.911 73.3761 97.6986 74.321C97.4888 75.2545 96.539 75.8958 95.5676 75.6774L93.0234 75.1055ZM116.129 86.6022C119.277 87.3099 122.293 85.3092 122.996 82.1804C123.699 79.0515 121.83 75.953 118.682 75.2453C115.533 74.5376 112.518 76.5382 111.815 79.6671C111.112 82.796 112.981 85.8945 116.129 86.6022ZM116.531 84.8137C114.384 84.331 113.138 82.2303 113.622 80.0734C114.107 77.9164 116.132 76.5511 118.28 77.0338C120.428 77.5167 121.688 79.6217 121.203 81.7775C120.719 83.9332 118.68 85.2966 116.531 84.8137Z" fill="#F7F3EB" stroke="#E5E1DA" stroke-width="0.475656"/>
<path d="M109.767 124.386C111.51 124.778 113.23 123.7 113.616 121.983C114.002 120.267 112.909 118.557 111.166 118.165C109.423 117.773 107.712 118.853 107.326 120.569C106.94 122.286 108.024 123.994 109.767 124.386ZM110.021 123.256C108.908 123.005 108.227 121.924 108.473 120.827C108.72 119.731 109.799 119.045 110.912 119.295C112.025 119.545 112.715 120.629 112.468 121.725C112.222 122.822 111.135 123.506 110.021 123.256Z" fill="#F7F3EB"/>
<path d="M115.284 119.144L113.909 125.263L115.056 125.521L115.608 123.065L118.387 123.69L118.639 122.568L115.861 121.943L116.178 120.532L119.267 121.227L119.521 120.096L115.284 119.144Z" fill="#F7F3EB"/>
<path d="M120.449 120.305L119.074 126.424L120.222 126.682L120.774 124.226L123.552 124.851L123.804 123.729L121.026 123.104L121.343 121.693L124.432 122.388L124.686 121.257L120.449 120.305Z" fill="#F7F3EB"/>
<path d="M114.632 103.18C115.98 103.483 117.361 103.014 118.275 101.993C118.743 101.484 119.042 100.891 119.199 100.194C119.517 98.7789 119.098 97.3867 118.103 96.4551C117.617 95.9918 117.023 95.6931 116.349 95.5415C114.978 95.2333 113.602 95.6794 112.688 96.7011C112.219 97.2094 111.916 97.8255 111.759 98.5219C111.451 99.8923 111.87 101.284 112.86 102.239C113.346 102.702 113.935 103.023 114.632 103.18ZM115.046 101.337C113.967 101.095 113.355 100.037 113.602 98.9362C113.85 97.8354 114.856 97.1411 115.935 97.3836C116.991 97.6211 117.603 98.6791 117.356 99.7799C117.108 100.881 116.102 101.575 115.046 101.337ZM122.67 113.954C124.041 114.263 125.416 113.817 126.33 112.795C126.799 112.287 127.103 111.67 127.259 110.974C127.567 109.604 127.148 108.211 126.159 107.257C125.672 106.794 125.083 106.473 124.387 106.316C123.038 106.013 121.68 106.487 120.743 107.503C120.275 108.012 119.954 108.6 119.797 109.297C119.479 110.712 119.926 112.087 120.92 113.018C121.407 113.482 121.995 113.803 122.67 113.954ZM123.084 112.112C122.027 111.875 121.415 110.817 121.663 109.716C121.91 108.615 122.916 107.921 123.973 108.158C125.051 108.401 125.664 109.459 125.416 110.56C125.169 111.661 124.163 112.355 123.084 112.112ZM125.384 97.5725L111.499 111.443L113.747 111.949L127.632 98.0777L125.384 97.5725Z" fill="#F7F3EB"/>
<path d="M84.1284 108.128C85.2783 103.013 82.2951 98.0266 77.2203 96.8857C73.9579 96.1522 71.2728 97.368 70.2853 98.373C71.236 94.144 73.9752 90.9941 77.4389 91.7728C80.218 92.3976 80.7671 94.8482 80.7059 96.0615L85.9418 97.2386C86.324 94.7858 85.4711 88.4165 78.3825 86.8229C71.0522 85.1749 66.3189 90.796 64.3178 99.6971C62.4978 107.793 64.8016 114.107 71.5277 115.619C77.8108 117.032 82.8607 113.767 84.1284 108.128ZM78.7263 107.125C78.1559 109.663 75.7427 111.363 73.0039 110.747C70.0235 110.077 68.7715 107.553 69.342 105.015C69.9124 102.478 72.379 100.917 75.0775 101.524C77.7357 102.121 79.2968 104.588 78.7263 107.125Z" fill="#F7F3EB"/>
<path d="M99.3933 101.532C96.9364 100.98 94.9691 101.638 93.9201 102.163L95.9983 96.4953L107.558 99.094L108.726 93.8984L92.7762 90.3127L87.5551 104.879L92.0945 107.084C92.7367 106.298 94.7412 105.098 97.198 105.651C100.017 106.284 101.515 109.033 100.908 111.731C100.284 114.51 97.5794 116.187 94.8809 115.581C92.5449 115.055 90.7331 112.575 91.1596 110.301L85.7626 109.088C84.662 114.172 88.191 119.366 93.7491 120.615C99.5086 121.91 104.903 118.807 106.171 113.168C107.384 107.771 104.508 102.682 99.3933 101.532Z" fill="#F7F3EB"/>
</svg>
